<mxfile host="app.diagrams.net" modified="2021-02-22T16:10:10.403Z" agent="5.0 (Macintosh; Intel Mac OS X 11_2_1) AppleWebKit/537.36 (KHTML, like Gecko) Chrome/88.0.4324.182 Safari/537.36 Edg/88.0.705.74" etag="5eERoxAUieIFPGCKQYx9" version="14.4.2" type="github">
  <diagram id="GdqKm0tieSYx6Tu-xcTb" name="Page-1">
    <mxGraphModel dx="1082" dy="609" grid="1" gridSize="10" guides="1" tooltips="1" connect="1" arrows="1" fold="1" page="1" pageScale="1" pageWidth="827" pageHeight="1169" math="0" shadow="0">
      <root>
        <mxCell id="0" />
        <mxCell id="1" parent="0" />
        <mxCell id="mSswg5Q8XJ27_4Vg2N4o-6" style="edgeStyle=orthogonalEdgeStyle;rounded=0;orthogonalLoop=1;jettySize=auto;html=1;exitX=1;exitY=0.25;exitDx=0;exitDy=0;entryX=0;entryY=0.25;entryDx=0;entryDy=0;" edge="1" parent="1" source="mSswg5Q8XJ27_4Vg2N4o-1" target="mSswg5Q8XJ27_4Vg2N4o-2">
          <mxGeometry relative="1" as="geometry" />
        </mxCell>
        <mxCell id="mSswg5Q8XJ27_4Vg2N4o-8" value="prototype" style="edgeLabel;html=1;align=center;verticalAlign=middle;resizable=0;points=[];" vertex="1" connectable="0" parent="mSswg5Q8XJ27_4Vg2N4o-6">
          <mxGeometry x="-0.5879" y="3" relative="1" as="geometry">
            <mxPoint x="72" as="offset" />
          </mxGeometry>
        </mxCell>
        <mxCell id="mSswg5Q8XJ27_4Vg2N4o-1" value="构造函数&lt;br&gt;Person" style="rounded=0;whiteSpace=wrap;html=1;" vertex="1" parent="1">
          <mxGeometry x="160" y="120" width="120" height="60" as="geometry" />
        </mxCell>
        <mxCell id="mSswg5Q8XJ27_4Vg2N4o-7" style="edgeStyle=orthogonalEdgeStyle;rounded=0;orthogonalLoop=1;jettySize=auto;html=1;exitX=0;exitY=0.75;exitDx=0;exitDy=0;entryX=1;entryY=0.75;entryDx=0;entryDy=0;" edge="1" parent="1" source="mSswg5Q8XJ27_4Vg2N4o-2" target="mSswg5Q8XJ27_4Vg2N4o-1">
          <mxGeometry relative="1" as="geometry" />
        </mxCell>
        <mxCell id="mSswg5Q8XJ27_4Vg2N4o-9" value="constructor" style="edgeLabel;html=1;align=center;verticalAlign=middle;resizable=0;points=[];" vertex="1" connectable="0" parent="mSswg5Q8XJ27_4Vg2N4o-7">
          <mxGeometry x="0.1515" y="1" relative="1" as="geometry">
            <mxPoint x="22" as="offset" />
          </mxGeometry>
        </mxCell>
        <mxCell id="mSswg5Q8XJ27_4Vg2N4o-2" value="Person.prototype" style="rounded=0;whiteSpace=wrap;html=1;" vertex="1" parent="1">
          <mxGeometry x="510" y="120" width="120" height="60" as="geometry" />
        </mxCell>
        <mxCell id="mSswg5Q8XJ27_4Vg2N4o-10" value="实例对象&lt;br&gt;new Person()" style="rounded=0;whiteSpace=wrap;html=1;" vertex="1" parent="1">
          <mxGeometry x="350" y="390" width="120" height="60" as="geometry" />
        </mxCell>
        <mxCell id="mSswg5Q8XJ27_4Vg2N4o-12" value="" style="endArrow=classic;html=1;exitX=0.5;exitY=1;exitDx=0;exitDy=0;entryX=0;entryY=0;entryDx=0;entryDy=0;" edge="1" parent="1" source="mSswg5Q8XJ27_4Vg2N4o-1" target="mSswg5Q8XJ27_4Vg2N4o-10">
          <mxGeometry width="50" height="50" relative="1" as="geometry">
            <mxPoint x="390" y="390" as="sourcePoint" />
            <mxPoint x="230" y="320" as="targetPoint" />
          </mxGeometry>
        </mxCell>
        <mxCell id="mSswg5Q8XJ27_4Vg2N4o-13" value="new" style="edgeLabel;html=1;align=center;verticalAlign=middle;resizable=0;points=[];" vertex="1" connectable="0" parent="mSswg5Q8XJ27_4Vg2N4o-12">
          <mxGeometry x="-0.2233" y="3" relative="1" as="geometry">
            <mxPoint as="offset" />
          </mxGeometry>
        </mxCell>
        <mxCell id="mSswg5Q8XJ27_4Vg2N4o-14" value="__proto__" style="endArrow=classic;html=1;exitX=1;exitY=0;exitDx=0;exitDy=0;" edge="1" parent="1" source="mSswg5Q8XJ27_4Vg2N4o-10">
          <mxGeometry width="50" height="50" relative="1" as="geometry">
            <mxPoint x="530" y="230" as="sourcePoint" />
            <mxPoint x="580" y="180" as="targetPoint" />
          </mxGeometry>
        </mxCell>
      </root>
    </mxGraphModel>
  </diagram>
</mxfile>
